<svg width="18" height="12" viewBox="0 0 18 12" fill="none" xmlns="http://www.w3.org/2000/svg">
<path d="M0 0H18V12H0V0Z" fill="#055E1C"/>
<path d="M6.45286 7.174C6.45286 7.60625 6.79496 7.95661 7.21702 7.95661H9.50948C9.50948 8.31675 9.7946 8.6088 10.1463 8.6088H10.9105C11.2622 8.6088 11.5473 8.31679 11.5473 7.95661V7.174H6.45286ZM11.6108 3.39136V5.21745C11.6108 5.50513 11.3823 5.73917 11.1014 5.73917V6.52178C11.8037 6.52178 12.375 5.93667 12.375 5.21745V3.39136H11.6108ZM6.13445 5.21748C6.13445 5.50517 5.90593 5.7392 5.625 5.7392V6.52181C6.32728 6.52181 6.89857 5.93671 6.89857 5.21748V3.39139H6.13441L6.13445 5.21748Z" fill="white"/>
<path d="M10.4646 3.391H11.2288V5.21709H10.4646V3.391ZM9.31841 4.43461C9.31841 4.50654 9.26128 4.56504 9.19104 4.56504C9.1208 4.56504 9.06367 4.50654 9.06367 4.43461V3.3911H8.29951V4.43461C8.29951 4.50654 8.24238 4.56504 8.17214 4.56504C8.1019 4.56504 8.04477 4.50654 8.04477 4.43461V3.3911H7.28061V4.43461C7.28061 4.93805 7.68055 5.34766 8.17211 5.34766C8.36142 5.34766 8.53703 5.28673 8.68155 5.18323C8.82605 5.28673 9.00169 5.34766 9.191 5.34766C9.22911 5.34766 9.26659 5.34492 9.3035 5.3401C9.24936 5.56858 9.04844 5.73895 8.80893 5.73895V6.52156C9.51121 6.52156 10.0825 5.93645 10.0825 5.21723V3.3911H9.31834L9.31841 4.43461Z" fill="white"/>
<path d="M7.28061 5.73881H8.42674V6.52142H7.28061V5.73881Z" fill="white"/>
</svg>