<svg width="54" height="55" viewBox="0 0 54 55" fill="none" xmlns="http://www.w3.org/2000/svg">
<circle cx="26.9994" cy="27.433" r="26.469" stroke="#2499E3" stroke-width="1.08037"/>
<path d="M31.951 18.7891H21.1473C20.1406 18.7891 19.6372 18.7891 19.2401 18.9535C18.7107 19.1728 18.29 19.5935 18.0707 20.1229C17.9062 20.52 17.9062 21.0234 17.9062 22.0302C17.9062 23.0369 17.9062 23.5403 18.0707 23.9374C18.29 24.4668 18.7107 24.8875 19.2401 25.1068C19.6372 25.2713 20.1406 25.2713 21.1473 25.2713H31.951C32.9578 25.2713 33.4612 25.2713 33.8583 25.1068C34.3877 24.8875 34.8083 24.4668 35.0276 23.9374C35.1921 23.5403 35.1921 23.0369 35.1921 22.0302C35.1921 21.0234 35.1921 20.52 35.0276 20.1229C34.8083 19.5935 34.3877 19.1728 33.8583 18.9535C33.4612 18.7891 32.9578 18.7891 31.951 18.7891Z" stroke="#2499E3" stroke-width="1.62055" stroke-linecap="round" stroke-linejoin="round"/>
<path d="M31.951 29.5918H21.1473C20.1406 29.5918 19.6372 29.5918 19.2401 29.7563C18.7107 29.9756 18.29 30.3962 18.0707 30.9257C17.9062 31.3227 17.9062 31.8261 17.9062 32.8329C17.9062 33.8397 17.9062 34.3431 18.0707 34.7401C18.29 35.2696 18.7107 35.6902 19.2401 35.9095C19.6372 36.074 20.1406 36.074 21.1473 36.074H31.951C32.9578 36.074 33.4612 36.074 33.8583 35.9095C34.3877 35.6902 34.8083 35.2696 35.0276 34.7401C35.1921 34.3431 35.1921 33.8397 35.1921 32.8329C35.1921 31.8261 35.1921 31.3227 35.0276 30.9257C34.8083 30.3962 34.3877 29.9756 33.8583 29.7563C33.4612 29.5918 32.9578 29.5918 31.951 29.5918Z" stroke="#2499E3" stroke-width="1.62055" stroke-linecap="round" stroke-linejoin="round"/>
<path d="M29.79 22.0293H31.9508" stroke="#2499E3" stroke-width="1.62055" stroke-linecap="round"/>
<path d="M29.79 32.834H31.9508" stroke="#2499E3" stroke-width="1.62055" stroke-linecap="round"/>
<path d="M23.3076 25.2715L23.3076 29.5929" stroke="#2499E3" stroke-width="1.62055" stroke-linecap="round"/>
<path d="M29.79 25.2715L29.79 29.5929" stroke="#2499E3" stroke-width="1.62055" stroke-linecap="round"/>
</svg>
