<svg width="55" height="55" viewBox="0 0 55 55" fill="none" xmlns="http://www.w3.org/2000/svg">
<circle cx="27.9857" cy="27.433" r="26.469" stroke="#2499E3" stroke-width="1.08037"/>
<path d="M28.4541 25.2715C29.4785 25.2715 29.9907 25.2715 30.466 25.019C30.7504 24.8679 31.1071 24.5371 31.2791 24.2649C31.5666 23.8098 31.5954 23.4276 31.653 22.663C31.6846 22.2439 31.6834 21.8315 31.6489 21.4049C31.5866 20.6346 31.5555 20.2494 31.2748 19.8019C31.0981 19.5201 30.7364 19.1865 30.4413 19.033C29.9726 18.7893 29.4646 18.7893 28.4487 18.7893V18.7893C27.3935 18.7893 26.8659 18.7893 26.3908 19.0414C26.0878 19.2022 25.7305 19.5406 25.5534 19.8343C25.2757 20.2949 25.2531 20.7077 25.2079 21.5332C25.1896 21.8672 25.1889 22.1937 25.2054 22.5229C25.2469 23.3515 25.2676 23.7658 25.5522 24.2337C25.7253 24.5183 26.0761 24.8519 26.369 25.0106C26.8506 25.2715 27.3851 25.2715 28.4541 25.2715V25.2715Z" stroke="#2499E3" stroke-width="1.62055"/>
<path d="M35.4569 35.5341L35.5465 34.5782C35.7018 32.9218 35.7794 32.0936 35.1602 30.943C34.966 30.5821 34.4081 29.9055 34.0908 29.646C33.0794 28.8188 32.4965 28.7613 31.3305 28.6462C30.4925 28.5636 29.5302 28.5117 28.4345 28.5117C27.3388 28.5117 26.3765 28.5636 25.5385 28.6462C24.3726 28.7613 23.7896 28.8188 22.7782 29.646C22.4609 29.9055 21.9031 30.5821 21.7088 30.943C21.0896 32.0936 21.1672 32.9218 21.3225 34.5782L21.4121 35.5341" stroke="#2499E3" stroke-width="1.62055" stroke-linecap="round"/>
</svg>
